<?xml version="1.0"?>
<!-- Generated by SVGo and Plotinum VG -->
<svg width="300pt" height="300pt" viewBox="0 0 300 300"
	xmlns="http://www.w3.org/2000/svg"
	xmlns:xlink="http://www.w3.org/1999/xlink">
<g transform="scale(1, -1) translate(0, -300)">
<path d="M0,0L300,0L300,300L0,300Z" style="fill:#FFFFFF" />
<text x="25.076" y="-3.252" transform="scale(1, -1)"
	style="font-family:Times;font-weight:normal;font-style:normal;font-size:10px">-5</text>
<text x="159.79" y="-3.252" transform="scale(1, -1)"
	style="font-family:Times;font-weight:normal;font-style:normal;font-size:10px">0</text>
<text x="292.84" y="-3.252" transform="scale(1, -1)"
	style="font-family:Times;font-weight:normal;font-style:normal;font-size:10px">5</text>
<path d="M29.241,11.074L29.241,19.074" style="fill:none;stroke:#000000;stroke-width:0.5" />
<path d="M162.29,11.074L162.29,19.074" style="fill:none;stroke:#000000;stroke-width:0.5" />
<path d="M295.34,11.074L295.34,19.074" style="fill:none;stroke:#000000;stroke-width:0.5" />
<path d="M55.851,15.074L55.851,19.074" style="fill:none;stroke:#000000;stroke-width:0.5" />
<path d="M82.461,15.074L82.461,19.074" style="fill:none;stroke:#000000;stroke-width:0.5" />
<path d="M109.07,15.074L109.07,19.074" style="fill:none;stroke:#000000;stroke-width:0.5" />
<path d="M135.68,15.074L135.68,19.074" style="fill:none;stroke:#000000;stroke-width:0.5" />
<path d="M188.9,15.074L188.9,19.074" style="fill:none;stroke:#000000;stroke-width:0.5" />
<path d="M215.51,15.074L215.51,19.074" style="fill:none;stroke:#000000;stroke-width:0.5" />
<path d="M242.12,15.074L242.12,19.074" style="fill:none;stroke:#000000;stroke-width:0.5" />
<path d="M268.73,15.074L268.73,19.074" style="fill:none;stroke:#000000;stroke-width:0.5" />
<path d="M26.58,19.074L298,19.074" style="fill:none;stroke:#000000;stroke-width:0.5" />
<text x="0" y="-24.039" transform="scale(1, -1)"
	style="font-family:Times;font-weight:normal;font-style:normal;font-size:10px">-5</text>
<text x="3.3301" y="-159.4" transform="scale(1, -1)"
	style="font-family:Times;font-weight:normal;font-style:normal;font-size:10px">0</text>
<text x="3.3301" y="-294.77" transform="scale(1, -1)"
	style="font-family:Times;font-weight:normal;font-style:normal;font-size:10px">5</text>
<path d="M10.83,26.324L18.83,26.324" style="fill:none;stroke:#000000;stroke-width:0.5" />
<path d="M10.83,161.69L18.83,161.69" style="fill:none;stroke:#000000;stroke-width:0.5" />
<path d="M10.83,297.05L18.83,297.05" style="fill:none;stroke:#000000;stroke-width:0.5" />
<path d="M14.83,53.397L18.83,53.397" style="fill:none;stroke:#000000;stroke-width:0.5" />
<path d="M14.83,80.47L18.83,80.47" style="fill:none;stroke:#000000;stroke-width:0.5" />
<path d="M14.83,107.54L18.83,107.54" style="fill:none;stroke:#000000;stroke-width:0.5" />
<path d="M14.83,134.61L18.83,134.61" style="fill:none;stroke:#000000;stroke-width:0.5" />
<path d="M14.83,188.76L18.83,188.76" style="fill:none;stroke:#000000;stroke-width:0.5" />
<path d="M14.83,215.83L18.83,215.83" style="fill:none;stroke:#000000;stroke-width:0.5" />
<path d="M14.83,242.91L18.83,242.91" style="fill:none;stroke:#000000;stroke-width:0.5" />
<path d="M14.83,269.98L18.83,269.98" style="fill:none;stroke:#000000;stroke-width:0.5" />
<path d="M18.83,26.324L18.83,297.05" style="fill:none;stroke:#000000;stroke-width:0.5" />
<path d="M217.51,188.76A2,2 0 1 1 213.51,188.76A2,2 0 1 1 217.51,188.76Z" style="fill:none;stroke:#FF0080;stroke-width:0.5" />
<path d="M270.73,242.91A2,2 0 1 1 266.73,242.91A2,2 0 1 1 270.73,242.91Z" style="fill:none;stroke:#FF0080;stroke-width:0.5" />
<path d="M244.12,218.54A2,2 0 1 1 240.12,218.54A2,2 0 1 1 244.12,218.54Z" style="fill:none;stroke:#FF0080;stroke-width:0.5" />
<path d="M276.05,269.98A2,2 0 1 1 272.05,269.98A2,2 0 1 1 276.05,269.98Z" style="fill:none;stroke:#FF0080;stroke-width:0.5" />
<path d="M300,297.05A2,2 0 1 1 296,297.05A2,2 0 1 1 300,297.05Z" style="fill:none;stroke:#FF0080;stroke-width:0.5" />
<path d="M28.58,26.324A2,2 0 1 1 24.58,26.324A2,2 0 1 1 28.58,26.324Z" style="fill:none;stroke:#FF0080;stroke-width:0.5" />
<path d="M32.897,26.324L37.658,30.909L43.198,36.242L48.737,41.575L54.276,46.907L59.815,52.24L65.354,57.573L70.894,62.906L76.433,68.239L81.972,73.572L87.511,78.905L93.05,84.238L98.589,89.571L104.13,94.904L109.67,100.24L115.21,105.57L120.75,110.9L126.29,116.24L131.82,121.57L137.36,126.9L142.9,132.23L148.44,137.57L153.98,142.9L159.52,148.23L165.06,153.57L170.6,158.9L176.14,164.23L181.68,169.56L187.22,174.9L192.76,180.23L198.29,185.56L203.83,190.9L209.37,196.23L214.91,201.56L220.45,206.89L225.99,212.23L231.53,217.56L237.07,222.89L242.61,228.23L248.15,233.56L253.69,238.89L259.23,244.22L264.76,249.56L270.3,254.89L275.84,260.22L281.38,265.56L286.92,270.89L292.46,276.22L298,281.56" style="fill:none;stroke:#0000FF" />
</g>
</svg>
